<mxfile host="app.diagrams.net" modified="2024-05-18T16:00:27.953Z" agent="Mozilla/5.0 (Windows NT 10.0; Win64; x64) AppleWebKit/537.36 (KHTML, like Gecko) Chrome/124.0.0.0 Safari/537.36" etag="zgdGLKz_Ay0CtWOUg1hp" version="24.4.2" type="device">
  <diagram id="C5RBs43oDa-KdzZeNtuy" name="Page-1">
    <mxGraphModel dx="1434" dy="738" grid="1" gridSize="10" guides="1" tooltips="1" connect="1" arrows="1" fold="1" page="1" pageScale="1" pageWidth="827" pageHeight="1169" math="0" shadow="0">
      <root>
        <mxCell id="WIyWlLk6GJQsqaUBKTNV-0" />
        <mxCell id="WIyWlLk6GJQsqaUBKTNV-1" parent="WIyWlLk6GJQsqaUBKTNV-0" />
        <mxCell id="2POwVRQ29rS7LBvy_34W-8" value="&amp;lt;&amp;lt;abstract&amp;gt;&amp;gt;&lt;br&gt;&lt;b&gt;GameObject&lt;/b&gt;" style="html=1;whiteSpace=wrap;" vertex="1" parent="WIyWlLk6GJQsqaUBKTNV-1">
          <mxGeometry x="260" y="140" width="110" height="50" as="geometry" />
        </mxCell>
        <mxCell id="2POwVRQ29rS7LBvy_34W-9" value="" style="html=1;verticalAlign=bottom;endArrow=block;curved=0;rounded=0;entryX=0.5;entryY=1;entryDx=0;entryDy=0;" edge="1" parent="WIyWlLk6GJQsqaUBKTNV-1" target="2POwVRQ29rS7LBvy_34W-8">
          <mxGeometry width="80" relative="1" as="geometry">
            <mxPoint x="315" y="270" as="sourcePoint" />
            <mxPoint x="450" y="380" as="targetPoint" />
          </mxGeometry>
        </mxCell>
        <mxCell id="2POwVRQ29rS7LBvy_34W-18" value="" style="edgeStyle=orthogonalEdgeStyle;rounded=0;orthogonalLoop=1;jettySize=auto;html=1;" edge="1" parent="WIyWlLk6GJQsqaUBKTNV-1" source="2POwVRQ29rS7LBvy_34W-10" target="2POwVRQ29rS7LBvy_34W-8">
          <mxGeometry relative="1" as="geometry" />
        </mxCell>
        <mxCell id="2POwVRQ29rS7LBvy_34W-19" value="Inherits" style="edgeLabel;html=1;align=center;verticalAlign=middle;resizable=0;points=[];" vertex="1" connectable="0" parent="2POwVRQ29rS7LBvy_34W-18">
          <mxGeometry x="-0.075" y="2" relative="1" as="geometry">
            <mxPoint as="offset" />
          </mxGeometry>
        </mxCell>
        <mxCell id="2POwVRQ29rS7LBvy_34W-10" value="Path" style="swimlane;fontStyle=1;align=center;verticalAlign=top;childLayout=stackLayout;horizontal=1;startSize=26;horizontalStack=0;resizeParent=1;resizeParentMax=0;resizeLast=0;collapsible=1;marginBottom=0;whiteSpace=wrap;html=1;" vertex="1" parent="WIyWlLk6GJQsqaUBKTNV-1">
          <mxGeometry x="235" y="270" width="160" height="310" as="geometry" />
        </mxCell>
        <mxCell id="2POwVRQ29rS7LBvy_34W-11" value="- Direction: Direction&lt;div&gt;- Destination: Location&lt;/div&gt;&lt;div&gt;- IsLocked: bool&lt;/div&gt;" style="text;strokeColor=none;fillColor=none;align=left;verticalAlign=top;spacingLeft=4;spacingRight=4;overflow=hidden;rotatable=0;points=[[0,0.5],[1,0.5]];portConstraint=eastwest;whiteSpace=wrap;html=1;" vertex="1" parent="2POwVRQ29rS7LBvy_34W-10">
          <mxGeometry y="26" width="160" height="64" as="geometry" />
        </mxCell>
        <mxCell id="2POwVRQ29rS7LBvy_34W-12" value="" style="line;strokeWidth=1;fillColor=none;align=left;verticalAlign=middle;spacingTop=-1;spacingLeft=3;spacingRight=3;rotatable=0;labelPosition=right;points=[];portConstraint=eastwest;strokeColor=inherit;" vertex="1" parent="2POwVRQ29rS7LBvy_34W-10">
          <mxGeometry y="90" width="160" height="8" as="geometry" />
        </mxCell>
        <mxCell id="2POwVRQ29rS7LBvy_34W-13" value="+ Path (string[] ids, name, description)&amp;nbsp;&lt;div&gt;&lt;br&gt;&lt;/div&gt;&lt;div&gt;+ DestinationLocation: Location &amp;lt;&amp;lt;readonly, property&amp;gt;&amp;gt;&lt;/div&gt;&lt;div&gt;+ PathDirection: Direction&lt;/div&gt;&lt;div&gt;&amp;lt;&amp;lt;readonly, property&amp;gt;&amp;gt;&lt;/div&gt;&lt;div&gt;+ IsLocked: bool &amp;lt;&amp;lt;property&amp;gt;&amp;gt;&lt;/div&gt;&lt;div&gt;&lt;br&gt;&lt;/div&gt;&lt;div&gt;+ Move (Player): void&lt;/div&gt;&lt;div&gt;+ CanMove(): bool&amp;nbsp;&lt;/div&gt;&lt;div&gt;&lt;br&gt;&lt;/div&gt;&lt;div&gt;&lt;br&gt;&lt;/div&gt;" style="text;strokeColor=none;fillColor=none;align=left;verticalAlign=top;spacingLeft=4;spacingRight=4;overflow=hidden;rotatable=0;points=[[0,0.5],[1,0.5]];portConstraint=eastwest;whiteSpace=wrap;html=1;" vertex="1" parent="2POwVRQ29rS7LBvy_34W-10">
          <mxGeometry y="98" width="160" height="212" as="geometry" />
        </mxCell>
        <mxCell id="2POwVRQ29rS7LBvy_34W-14" value="&amp;lt;&amp;lt;enum&amp;gt;&amp;gt;&lt;br&gt;Direction" style="swimlane;fontStyle=0;childLayout=stackLayout;horizontal=1;startSize=26;fillColor=none;horizontalStack=0;resizeParent=1;resizeParentMax=0;resizeLast=0;collapsible=1;marginBottom=0;whiteSpace=wrap;html=1;" vertex="1" parent="WIyWlLk6GJQsqaUBKTNV-1">
          <mxGeometry x="520" y="250" width="140" height="180" as="geometry" />
        </mxCell>
        <mxCell id="2POwVRQ29rS7LBvy_34W-15" value="North&lt;br&gt;East&lt;br&gt;South&lt;br&gt;West&lt;div&gt;NorthEast&lt;br&gt;&lt;/div&gt;&lt;div&gt;SouthEast&lt;/div&gt;&lt;div&gt;SouthWest&lt;/div&gt;&lt;div&gt;NorthWest&lt;/div&gt;&lt;div&gt;Up&lt;/div&gt;&lt;div&gt;Down&lt;/div&gt;&lt;div&gt;&lt;br&gt;&lt;/div&gt;" style="text;strokeColor=none;fillColor=none;align=left;verticalAlign=top;spacingLeft=4;spacingRight=4;overflow=hidden;rotatable=0;points=[[0,0.5],[1,0.5]];portConstraint=eastwest;whiteSpace=wrap;html=1;" vertex="1" parent="2POwVRQ29rS7LBvy_34W-14">
          <mxGeometry y="26" width="140" height="154" as="geometry" />
        </mxCell>
        <mxCell id="2POwVRQ29rS7LBvy_34W-20" value="uses" style="html=1;verticalAlign=bottom;endArrow=block;curved=0;rounded=0;entryX=-0.007;entryY=0.078;entryDx=0;entryDy=0;entryPerimeter=0;" edge="1" parent="WIyWlLk6GJQsqaUBKTNV-1" target="2POwVRQ29rS7LBvy_34W-14">
          <mxGeometry width="80" relative="1" as="geometry">
            <mxPoint x="400" y="280" as="sourcePoint" />
            <mxPoint x="450" y="380" as="targetPoint" />
          </mxGeometry>
        </mxCell>
        <mxCell id="2POwVRQ29rS7LBvy_34W-21" value="Location" style="swimlane;fontStyle=1;align=center;verticalAlign=top;childLayout=stackLayout;horizontal=1;startSize=26;horizontalStack=0;resizeParent=1;resizeParentMax=0;resizeLast=0;collapsible=1;marginBottom=0;whiteSpace=wrap;html=1;" vertex="1" parent="WIyWlLk6GJQsqaUBKTNV-1">
          <mxGeometry y="270" width="160" height="150" as="geometry" />
        </mxCell>
        <mxCell id="2POwVRQ29rS7LBvy_34W-22" value="...&lt;br&gt;-&amp;nbsp; _paths: List&amp;lt;Path&amp;gt;" style="text;strokeColor=none;fillColor=none;align=left;verticalAlign=top;spacingLeft=4;spacingRight=4;overflow=hidden;rotatable=0;points=[[0,0.5],[1,0.5]];portConstraint=eastwest;whiteSpace=wrap;html=1;" vertex="1" parent="2POwVRQ29rS7LBvy_34W-21">
          <mxGeometry y="26" width="160" height="44" as="geometry" />
        </mxCell>
        <mxCell id="2POwVRQ29rS7LBvy_34W-23" value="" style="line;strokeWidth=1;fillColor=none;align=left;verticalAlign=middle;spacingTop=-1;spacingLeft=3;spacingRight=3;rotatable=0;labelPosition=right;points=[];portConstraint=eastwest;strokeColor=inherit;" vertex="1" parent="2POwVRQ29rS7LBvy_34W-21">
          <mxGeometry y="70" width="160" height="8" as="geometry" />
        </mxCell>
        <mxCell id="2POwVRQ29rS7LBvy_34W-24" value="...&lt;br&gt;+ AddPath (Path): void&lt;div&gt;+ GetPath (Direction): Path&amp;nbsp;&lt;/div&gt;" style="text;strokeColor=none;fillColor=none;align=left;verticalAlign=top;spacingLeft=4;spacingRight=4;overflow=hidden;rotatable=0;points=[[0,0.5],[1,0.5]];portConstraint=eastwest;whiteSpace=wrap;html=1;" vertex="1" parent="2POwVRQ29rS7LBvy_34W-21">
          <mxGeometry y="78" width="160" height="72" as="geometry" />
        </mxCell>
        <mxCell id="2POwVRQ29rS7LBvy_34W-25" value="" style="html=1;verticalAlign=bottom;endArrow=block;curved=0;rounded=0;exitX=0.75;exitY=0;exitDx=0;exitDy=0;entryX=0;entryY=0.5;entryDx=0;entryDy=0;" edge="1" parent="WIyWlLk6GJQsqaUBKTNV-1" source="2POwVRQ29rS7LBvy_34W-21" target="2POwVRQ29rS7LBvy_34W-8">
          <mxGeometry width="80" relative="1" as="geometry">
            <mxPoint x="370" y="480" as="sourcePoint" />
            <mxPoint x="450" y="480" as="targetPoint" />
          </mxGeometry>
        </mxCell>
        <mxCell id="2POwVRQ29rS7LBvy_34W-26" value="inherits" style="edgeLabel;html=1;align=center;verticalAlign=middle;resizable=0;points=[];" vertex="1" connectable="0" parent="2POwVRQ29rS7LBvy_34W-25">
          <mxGeometry x="-0.0464" y="-2" relative="1" as="geometry">
            <mxPoint as="offset" />
          </mxGeometry>
        </mxCell>
        <mxCell id="2POwVRQ29rS7LBvy_34W-27" value="Player" style="swimlane;fontStyle=1;align=center;verticalAlign=top;childLayout=stackLayout;horizontal=1;startSize=26;horizontalStack=0;resizeParent=1;resizeParentMax=0;resizeLast=0;collapsible=1;marginBottom=0;whiteSpace=wrap;html=1;" vertex="1" parent="WIyWlLk6GJQsqaUBKTNV-1">
          <mxGeometry x="450" width="160" height="110" as="geometry" />
        </mxCell>
        <mxCell id="2POwVRQ29rS7LBvy_34W-28" value="..." style="text;strokeColor=none;fillColor=none;align=left;verticalAlign=top;spacingLeft=4;spacingRight=4;overflow=hidden;rotatable=0;points=[[0,0.5],[1,0.5]];portConstraint=eastwest;whiteSpace=wrap;html=1;" vertex="1" parent="2POwVRQ29rS7LBvy_34W-27">
          <mxGeometry y="26" width="160" height="26" as="geometry" />
        </mxCell>
        <mxCell id="2POwVRQ29rS7LBvy_34W-29" value="" style="line;strokeWidth=1;fillColor=none;align=left;verticalAlign=middle;spacingTop=-1;spacingLeft=3;spacingRight=3;rotatable=0;labelPosition=right;points=[];portConstraint=eastwest;strokeColor=inherit;" vertex="1" parent="2POwVRQ29rS7LBvy_34W-27">
          <mxGeometry y="52" width="160" height="8" as="geometry" />
        </mxCell>
        <mxCell id="2POwVRQ29rS7LBvy_34W-30" value="...&lt;div&gt;+ Move (Direction): string&lt;/div&gt;" style="text;strokeColor=none;fillColor=none;align=left;verticalAlign=top;spacingLeft=4;spacingRight=4;overflow=hidden;rotatable=0;points=[[0,0.5],[1,0.5]];portConstraint=eastwest;whiteSpace=wrap;html=1;" vertex="1" parent="2POwVRQ29rS7LBvy_34W-27">
          <mxGeometry y="60" width="160" height="50" as="geometry" />
        </mxCell>
        <mxCell id="2POwVRQ29rS7LBvy_34W-31" value="" style="html=1;verticalAlign=bottom;endArrow=block;curved=0;rounded=0;exitX=0.75;exitY=0;exitDx=0;exitDy=0;entryX=0;entryY=0.184;entryDx=0;entryDy=0;entryPerimeter=0;" edge="1" parent="WIyWlLk6GJQsqaUBKTNV-1" source="2POwVRQ29rS7LBvy_34W-8" target="2POwVRQ29rS7LBvy_34W-27">
          <mxGeometry width="80" relative="1" as="geometry">
            <mxPoint x="310" y="140" as="sourcePoint" />
            <mxPoint x="499" y="60" as="targetPoint" />
          </mxGeometry>
        </mxCell>
        <mxCell id="2POwVRQ29rS7LBvy_34W-32" value="inherits" style="edgeLabel;html=1;align=center;verticalAlign=middle;resizable=0;points=[];" vertex="1" connectable="0" parent="2POwVRQ29rS7LBvy_34W-31">
          <mxGeometry x="-0.0464" y="-2" relative="1" as="geometry">
            <mxPoint as="offset" />
          </mxGeometry>
        </mxCell>
      </root>
    </mxGraphModel>
  </diagram>
</mxfile>
